<svg width="344" height="344" viewBox="0 0 344 344" fill="none" xmlns="http://www.w3.org/2000/svg">
<path d="M309.518 173.863L333.913 176.127L333.499 180.588L316.178 178.98L332.283 193.691L331.891 197.908L307.496 195.644L307.91 191.183L325.196 192.787L309.126 178.079L309.518 173.863Z" fill="black"/>
<path d="M301.971 216.248L315.715 211.52L316.902 215.676L300.569 221.199L301.971 216.248ZM306.387 200.657L329.96 207.334L328.739 211.644L305.166 204.967L306.387 200.657ZM315.472 206.468L319.244 207.536L316.993 215.483L313.221 214.415L315.472 206.468ZM314.397 215.403L316.07 211.548L325.543 222.925L324.227 227.572L314.397 215.403Z" fill="black"/>
<path d="M313.756 249.839L311.722 253.909L289.806 242.958L291.839 238.888L313.756 249.839ZM297.503 227.554L299.537 223.484L321.453 234.435L319.419 238.505L297.503 227.554ZM301.076 243.894L307.068 231.903L310.543 233.639L304.551 245.631L301.076 243.894Z" fill="black"/>
<path d="M283.852 251.285L301.41 264.155L299.865 264.368L305.286 256.972L308.392 259.248L296.142 275.96L293.037 273.683L298.458 266.288L298.741 267.797L281.183 254.926L283.852 251.285Z" fill="black"/>
<path d="M269.129 269.179L285.283 287.598L277.705 294.245C276.074 295.675 274.448 296.635 272.829 297.125C271.192 297.629 269.627 297.667 268.134 297.239C266.641 296.81 265.302 295.92 264.117 294.57C262.933 293.219 262.225 291.775 261.995 290.239C261.765 288.703 262.007 287.156 262.721 285.599C263.417 284.057 264.581 282.571 266.212 281.14L271.896 276.156L271.778 279.099L265.708 272.179L269.129 269.179ZM271.455 278.731L274.435 279.05L268.909 283.896C267.4 285.22 266.546 286.528 266.345 287.821C266.142 289.147 266.549 290.389 267.564 291.547C268.595 292.722 269.773 293.287 271.099 293.241C272.407 293.211 273.816 292.535 275.324 291.212L280.85 286.365L280.801 289.388L271.455 278.731Z" fill="black"/>
<path d="M243.896 288.393C245.522 287.383 247.22 286.645 248.989 286.178C250.772 285.731 252.326 285.603 253.654 285.795L254.181 289.629C252.942 289.491 251.573 289.586 250.073 289.913C248.573 290.24 247.179 290.804 245.89 291.604C244.8 292.281 243.992 292.947 243.466 293.604C242.939 294.26 242.641 294.885 242.57 295.478C242.511 296.092 242.642 296.656 242.962 297.171C243.355 297.806 243.897 298.17 244.587 298.263C245.289 298.377 246.075 298.315 246.943 298.077C247.805 297.872 248.743 297.592 249.758 297.236C250.753 296.893 251.777 296.573 252.829 296.277C253.874 296.013 254.892 295.861 255.884 295.822C256.868 295.815 257.81 296.027 258.709 296.457C259.608 296.888 260.402 297.658 261.091 298.768C261.793 299.898 262.136 301.114 262.119 302.415C262.096 303.748 261.642 305.073 260.757 306.391C259.865 307.742 258.468 309.008 256.565 310.189C255.316 310.965 253.979 311.575 252.553 312.021C251.127 312.467 249.773 312.676 248.492 312.647L247.846 308.887C249.123 308.864 250.337 308.673 251.488 308.315C252.651 307.978 253.689 307.526 254.601 306.959C255.671 306.295 256.463 305.624 256.977 304.948C257.471 304.284 257.748 303.646 257.807 303.033C257.845 302.432 257.699 301.864 257.366 301.328C256.973 300.694 256.434 300.314 255.752 300.188C255.062 300.095 254.293 300.16 253.444 300.386C252.575 300.623 251.627 300.909 250.6 301.245C249.584 301.601 248.561 301.921 247.529 302.205C246.477 302.501 245.464 302.662 244.492 302.689C243.5 302.728 242.565 302.526 241.686 302.083C240.787 301.653 239.999 300.892 239.322 299.802C238.632 298.692 238.3 297.47 238.323 296.137C238.34 294.837 238.794 293.511 239.686 292.161C240.59 290.83 241.993 289.574 243.896 288.393Z" fill="black"/>
<path d="M223.019 299.009C226.132 297.746 228.931 297.631 231.414 298.664C233.876 299.705 235.777 301.88 237.119 305.189L242.313 318L238.097 319.71L232.968 307.06C232.021 304.725 230.835 303.229 229.411 302.573C227.965 301.925 226.323 301.974 224.485 302.719C222.647 303.465 221.446 304.569 220.881 306.032C220.316 307.494 220.506 309.394 221.453 311.729L226.582 324.379L222.43 326.062L217.236 313.25C215.894 309.942 215.755 307.052 216.818 304.582C217.86 302.12 219.926 300.262 223.019 299.009Z" fill="black"/>
<path d="M200.848 306.627L204.141 330.904L199.702 331.507L197.363 314.27L186.661 333.276L182.465 333.845L179.171 309.567L183.61 308.965L185.944 326.168L196.651 307.196L200.848 306.627Z" fill="black"/>
<path d="M157.302 308.775L164.988 321.111L161.203 323.198L152.163 308.517L157.302 308.775ZM173.486 309.587L172.258 334.056L167.783 333.832L169.012 309.363L173.486 309.587ZM169.858 319.743L169.661 323.658L161.411 323.244L161.608 319.329L169.858 319.743ZM160.908 320.695L165.04 321.464L156.073 333.244L151.249 333.002L160.908 320.695Z" fill="black"/>
<path d="M127.555 327.888L123.13 326.832L128.816 303.001L133.242 304.057L127.555 327.888ZM145.566 306.998L149.992 308.054L144.305 331.885L139.879 330.829L145.566 306.998ZM130.465 314.189L143.503 317.301L142.602 321.08L129.563 317.968L130.465 314.189Z" fill="black"/>
<path d="M119.362 299.06L110.806 319.079L110.249 317.622L118.681 321.226L117.168 324.766L98.1149 316.624L99.6279 313.083L108.06 316.687L106.654 317.304L115.21 297.286L119.362 299.06Z" fill="black"/>
<path d="M98.6799 288.768L84.3402 308.634L76.1671 302.734C74.4076 301.464 73.1084 300.094 72.2695 298.625C71.4116 297.143 71.0245 295.626 71.1082 294.075C71.1919 292.524 71.7595 291.02 72.8111 289.563C73.8626 288.106 75.1114 287.094 76.5572 286.526C78.0031 285.958 79.5647 285.848 81.242 286.195C82.9003 286.529 84.6093 287.331 86.3688 288.601L92.4986 293.026L89.603 293.569L94.9906 286.105L98.6799 288.768ZM89.8898 293.172L90.2452 296.148L84.2857 291.846C82.6586 290.671 81.1925 290.131 79.8873 290.225C78.5496 290.324 77.43 290.998 76.5287 292.246C75.6137 293.514 75.3266 294.789 75.6674 296.071C75.9893 297.339 76.9637 298.561 78.5908 299.735L84.5503 304.037L81.5933 304.665L89.8898 293.172Z" fill="black"/>
<path d="M74.3262 268.494C75.6742 269.852 76.7742 271.341 77.6263 272.961C78.4618 274.598 78.9349 276.084 79.0455 277.421L75.4272 278.794C75.2832 277.556 74.8837 276.243 74.2288 274.855C73.5739 273.466 72.7122 272.234 71.6436 271.158C70.7395 270.247 69.9086 269.609 69.1509 269.243C68.3933 268.877 67.7174 268.726 67.1232 268.79C66.5124 268.87 65.9917 269.124 65.5612 269.552C65.0313 270.078 64.7981 270.687 64.8616 271.38C64.9085 272.09 65.145 272.842 65.5711 273.635C65.9642 274.429 66.4479 275.28 67.022 276.19C67.5798 277.083 68.1209 278.009 68.6454 278.967C69.1369 279.926 69.5129 280.884 69.7734 281.842C70.0009 282.8 70.0056 283.765 69.7876 284.738C69.5696 285.711 68.9969 286.657 68.0696 287.578C67.1257 288.515 66.0181 289.121 64.7466 289.397C63.4422 289.673 62.0485 289.528 60.5657 288.961C59.0498 288.395 57.5028 287.317 55.9246 285.727C54.889 284.684 53.994 283.517 53.2397 282.228C52.4854 280.938 51.9786 279.666 51.7191 278.411L55.2388 276.939C55.5478 278.177 56.0057 279.317 56.6123 280.359C57.2025 281.417 57.8756 282.327 58.6318 283.089C59.5195 283.983 60.3505 284.605 61.1247 284.954C61.8825 285.287 62.5667 285.413 63.1775 285.333C63.7718 285.236 64.2925 284.966 64.7396 284.522C65.2695 283.996 65.5192 283.386 65.4887 282.693C65.4252 282 65.1887 281.265 64.779 280.488C64.3529 279.694 63.8611 278.834 63.3035 277.909C62.7293 276.999 62.1882 276.073 61.6801 275.131C61.1556 274.172 60.7713 273.222 60.5273 272.28C60.2668 271.323 60.2537 270.366 60.4882 269.409C60.7062 268.437 61.2706 267.498 62.1814 266.594C63.1087 265.674 64.2245 265.075 65.529 264.8C66.8004 264.524 68.1941 264.669 69.71 265.236C71.2093 265.819 72.748 266.905 74.3262 268.494Z" fill="black"/>
<path d="M59.3307 250.605C61.2673 253.351 62.0147 256.05 61.573 258.703C61.1178 261.337 59.4316 263.683 56.5142 265.74L45.2165 273.708L42.5941 269.99L53.7487 262.123C55.808 260.67 56.9955 259.176 57.3112 257.64C57.6135 256.085 57.193 254.497 56.0499 252.876C54.9068 251.255 53.5587 250.336 52.0058 250.118C50.4528 249.9 48.6467 250.517 46.5874 251.969L35.4327 259.837L32.8506 256.176L44.1483 248.207C47.0656 246.15 49.8479 245.358 52.4952 245.832C55.129 246.287 57.4075 247.878 59.3307 250.605Z" fill="black"/>
<path d="M46.8598 230.748L23.9539 239.441L22.3643 235.253L38.6275 229.081L17.6949 222.949L16.1922 218.99L39.0982 210.297L40.6878 214.485L24.4573 220.645L45.3571 226.789L46.8598 230.748Z" fill="black"/>
<path d="M35.0267 189.305L24.7387 199.572L21.8522 196.355L34.1208 184.24L35.0267 189.305ZM37.88 205.257L13.7628 209.571L12.974 205.161L37.0912 200.847L37.88 205.257ZM27.1679 204.008L23.3091 204.699L21.8547 196.568L25.7135 195.877L27.1679 204.008ZM24.2244 195.504L24.4065 199.702L10.9095 193.619L10.059 188.864L24.2244 195.504Z" fill="black"/>
<path d="M9.66052 164.215L9.69565 159.665L34.1949 159.854L34.1598 164.404L9.66052 164.215ZM34.062 177.073L34.0268 181.623L9.52758 181.434L9.5627 176.884L34.062 177.073ZM23.6628 163.973L23.5593 177.377L19.6744 177.347L19.7779 163.943L23.6628 163.973Z" fill="black"/>
<path d="M35.8549 149.698L14.4251 145.865L15.7186 144.994L14.104 154.021L10.3141 153.343L13.9624 132.946L17.7523 133.624L16.1377 142.651L15.22 141.42L36.6499 145.253L35.8549 149.698Z" fill="black"/>
<path d="M41.0065 127.615L18.4064 118.155L22.2984 108.857C23.1362 106.855 24.1753 105.279 25.4157 104.129C26.665 102.957 28.0545 102.236 29.5842 101.966C31.1138 101.695 32.7073 101.907 34.3647 102.601C36.022 103.294 37.2912 104.281 38.1722 105.56C39.0532 106.84 39.5148 108.335 39.5569 110.048C39.608 111.739 39.2146 113.585 38.3767 115.587L35.4578 122.56L34.2721 119.864L42.7633 123.418L41.0065 127.615ZM34.7241 120.053L31.9063 121.074L34.7442 114.294C35.519 112.443 35.7127 110.892 35.3252 109.643C34.9252 108.362 34.015 107.425 32.5944 106.83C31.1523 106.226 29.8456 106.236 28.6743 106.859C27.5121 107.46 26.5435 108.686 25.7687 110.537L22.9308 117.317L21.6484 114.58L34.7241 120.053Z" fill="black"/>
<path d="M55.4511 98.8549C54.4299 100.473 53.2254 101.879 51.8376 103.072C50.43 104.253 49.0872 105.047 47.8091 105.455L45.6603 102.236C46.8345 101.819 48.0248 101.135 49.231 100.185C50.4372 99.2361 51.445 98.1201 52.2545 96.8375C52.9394 95.7522 53.3752 94.7994 53.5619 93.9791C53.7485 93.1588 53.7441 92.4662 53.5487 91.9014C53.3336 91.3242 52.9695 90.8737 52.4565 90.5499C51.8251 90.1514 51.1787 90.0607 50.5173 90.2779C49.8363 90.4827 49.1568 90.8817 48.479 91.4748C47.7939 92.0357 47.0725 92.6978 46.3147 93.4612C45.5695 94.2049 44.7884 94.9398 43.9714 95.6658C43.1472 96.3597 42.2976 96.9409 41.4224 97.4095C40.54 97.8459 39.6004 98.0668 38.6036 98.0723C37.6068 98.0779 36.5559 97.7319 35.4509 97.0345C34.3262 96.3247 33.4869 95.3811 32.9331 94.2039C32.372 92.9944 32.2013 91.6036 32.4209 90.0315C32.6332 88.4273 33.3372 86.678 34.5327 84.7837C35.3173 83.5406 36.2535 82.4069 37.3413 81.3828C38.4291 80.3587 39.5554 79.5796 40.7202 79.0455L42.9438 82.1457C41.806 82.7244 40.7975 83.4261 39.9183 84.2508C39.0194 85.0631 38.2835 85.9231 37.7106 86.8307C37.0381 87.8963 36.6184 88.8454 36.4515 89.6782C36.2971 90.4913 36.3274 91.1864 36.5426 91.7637C36.7701 92.3212 37.1503 92.768 37.6831 93.1043C38.3145 93.5028 38.9645 93.6095 39.6331 93.4245C40.2945 93.2073 40.9578 92.812 41.6232 92.2386C42.301 91.6455 43.0287 90.9735 43.8061 90.2225C44.5639 89.4591 45.345 88.7242 46.1494 88.0179C46.9663 87.2919 47.8062 86.7044 48.6689 86.2556C49.544 85.787 50.4737 85.5598 51.4581 85.5741C52.4549 85.5685 53.4959 85.9082 54.5812 86.5932C55.6862 87.2906 56.5192 88.244 57.0803 89.4535C57.6341 90.6307 57.8048 92.0215 57.5925 93.6258C57.3604 95.2176 56.6466 96.9607 55.4511 98.8549Z" fill="black"/>
<path d="M69.3393 80.4274C67.0964 82.9292 64.6327 84.2616 61.9482 84.4246C59.2793 84.5702 56.6158 83.4515 53.9576 81.0684L43.6638 71.8398L46.7011 68.4519L56.8646 77.5638C58.7409 79.2459 60.463 80.069 62.0308 80.0331C63.6142 79.9797 65.0678 79.2147 66.3918 77.7379C67.7157 76.2611 68.3102 74.7416 68.1754 73.1792C68.0406 71.6168 67.035 69.9945 65.1587 68.3123L54.9951 59.2005L57.9857 55.8648L68.2795 65.0934C70.9377 67.4765 72.3318 70.0112 72.4618 72.6974C72.6075 75.3663 71.5666 77.943 69.3393 80.4274Z" fill="black"/>
<path d="M85.5716 63.9592L71.8936 43.6329L75.6104 41.1317L85.3218 55.5634L86.5285 33.7847L90.0421 31.4203L103.72 51.7467L100.003 54.2478L90.3114 39.8451L89.0852 61.5949L85.5716 63.9592Z" fill="black"/>
<path d="M123.327 42.851L110.98 35.1821L113.452 31.6366L128.05 40.8114L123.327 42.851ZM108.449 49.2749L98.7371 26.7822L102.85 25.0062L112.562 47.499L108.449 49.2749ZM107.216 38.561L105.662 34.9622L113.245 31.6878L114.799 35.2866L107.216 38.561ZM114.823 33.7515L110.777 34.8885L113.614 20.3582L118.049 18.4435L114.823 33.7515Z" fill="black"/>
<path d="M141.565 12.4831L146.002 11.4776L151.416 35.372L146.979 36.3774L141.565 12.4831ZM134.622 39.1772L130.185 40.1827L124.771 16.2884L129.208 15.2829L134.622 39.1772ZM145 26.0597L131.926 29.0219L131.068 25.2329L144.142 22.2707L145 26.0597Z" fill="black"/>
<path d="M161.319 34.6673L160.144 12.929L161.288 13.9888L152.131 14.4839L151.923 10.6396L172.613 9.52079L172.821 13.3652L163.664 13.8603L164.652 12.6852L165.828 34.4235L161.319 34.6673Z" fill="black"/>
<path d="M185.459 34.6647L189.588 10.5152L199.524 12.214C201.663 12.5798 203.432 13.2374 204.832 14.1869C206.255 15.1404 207.271 16.3319 207.879 17.7614C208.486 19.191 208.639 20.7912 208.336 22.5622C208.033 24.3332 207.358 25.7919 206.309 26.9383C205.261 28.0847 203.908 28.8711 202.249 29.2976C200.613 29.7281 198.725 29.7604 196.586 29.3947L189.135 28.1206L191.495 26.3582L189.944 35.4316L185.459 34.6647ZM191.413 26.8412L189.783 24.3256L197.028 25.5644C199.006 25.9026 200.561 25.7422 201.691 25.0834C202.849 24.4054 203.557 23.3074 203.817 21.7895C204.08 20.2485 203.777 18.9775 202.906 17.9765C202.059 16.9794 200.646 16.3118 198.668 15.9736L191.423 14.7348L193.802 12.869L191.413 26.8412Z" fill="black"/>
<path d="M215.94 41.9848C214.132 41.36 212.488 40.5082 211.01 39.4295C209.538 38.3287 208.459 37.2027 207.77 36.0514L210.413 33.2246C211.088 34.2724 212.025 35.2751 213.225 36.2327C214.425 37.1903 215.741 37.9167 217.175 38.412C218.388 38.8311 219.415 39.0378 220.256 39.0323C221.097 39.0267 221.771 38.8643 222.276 38.5451C222.789 38.2039 223.144 37.7466 223.343 37.1732C223.586 36.4675 223.527 35.8175 223.165 35.2232C222.81 34.6068 222.266 34.0364 221.534 33.5119C220.831 32.9729 220.022 32.4217 219.106 31.8583C218.212 31.3025 217.318 30.7098 216.424 30.0802C215.561 29.4362 214.801 28.7417 214.145 27.9966C213.519 27.2371 213.089 26.3727 212.856 25.4035C212.623 24.4343 212.72 23.3322 213.147 22.0972C213.581 20.8401 214.308 19.8076 215.328 18.9996C216.377 18.1772 217.692 17.6935 219.273 17.5484C220.883 17.3889 222.747 17.6748 224.864 18.4063C226.254 18.8864 227.571 19.539 228.817 20.3643C230.062 21.1896 231.078 22.1083 231.864 23.1204L229.353 25.993C228.53 25.0174 227.616 24.1957 226.613 23.528C225.617 22.8383 224.611 22.3182 223.597 21.9677C222.406 21.5562 221.386 21.3643 220.537 21.3919C219.71 21.4272 219.04 21.6154 218.528 21.9566C218.037 22.3055 217.688 22.7776 217.483 23.3731C217.239 24.0788 217.283 24.7361 217.616 25.3448C217.979 25.9391 218.515 26.4947 219.225 27.0116C219.957 27.5361 220.778 28.0911 221.686 28.6766C222.603 29.24 223.496 29.8327 224.368 30.4546C225.261 31.0842 226.025 31.7678 226.659 32.5052C227.315 33.2503 227.748 34.1036 227.959 35.0652C228.192 36.0344 228.099 37.1255 227.68 38.3384C227.253 39.5735 226.515 40.6022 225.466 41.4246C224.446 42.2325 223.131 42.7163 221.52 42.8758C219.918 43.0133 218.058 42.7163 215.94 41.9848Z" fill="black"/>
<path d="M237.513 51.5071C234.571 49.8841 232.719 47.7831 231.957 45.2041C231.215 42.6363 231.706 39.7894 233.43 36.6635L240.108 24.5581L244.092 26.7558L237.499 38.7079C236.281 40.9145 235.867 42.7775 236.254 44.2971C236.662 45.8279 237.735 47.0723 239.471 48.0303C241.208 48.9883 242.822 49.2259 244.314 48.7432C245.806 48.2606 247.161 46.916 248.378 44.7094L254.971 32.7573L258.894 34.9212L252.216 47.0265C250.492 50.1525 248.336 52.0808 245.747 52.8116C243.18 53.5536 240.435 53.1187 237.513 51.5071Z" fill="black"/>
<path d="M257.381 63.7597L274.129 45.8784L277.399 48.941L265.508 61.6367L287.004 57.9373L290.095 60.8324L273.346 78.7137L270.076 75.6511L281.944 62.9809L260.472 66.6548L257.381 63.7597Z" fill="black"/>
<path d="M286.275 95.6128L290.946 81.8496L294.96 83.4539L289.332 99.7512L286.275 95.6128ZM276.647 82.5781L296.354 68.0217L299.015 71.6252L279.308 86.1817L276.647 82.5781ZM286.803 78.9492L289.956 76.6202L294.863 83.2642L291.71 85.5932L286.803 78.9492ZM293.211 85.2682L291.186 81.5853L305.982 81.0564L308.851 84.9415L293.211 85.2682Z" fill="black"/>
<path d="M320.085 106.636L322.074 110.729L300.037 121.436L298.049 117.343L320.085 106.636ZM292.512 105.947L290.523 101.854L312.56 91.1477L314.548 95.2402L292.512 105.947ZM307.646 113.069L301.788 101.012L305.282 99.3143L311.14 111.372L307.646 113.069Z" fill="black"/>
<path d="M303.132 131.519L324.055 125.507L323.278 126.859L320.746 118.046L324.446 116.982L330.168 136.897L326.468 137.96L323.936 129.146L325.302 129.846L304.379 135.858L303.132 131.519Z" fill="black"/>
</svg>
