<svg width="192" height="84" viewBox="0 0 192 84" fill="none" xmlns="http://www.w3.org/2000/svg">
<path d="M4.2 29H15V54.2L31.5 29H41.4V71H30.6V45.8L14.1 71H4.2V29ZM55.4859 29H66.2859V45.62H69.2859L82.1259 29H93.8859L77.6859 48.62L94.4859 71H81.8859L69.2859 53.18H66.2859V71H55.4859V29ZM105.307 29H116.107V44.96H131.707V29H142.507V71H131.707V53.84H116.107V71H105.307V29ZM166.493 37.88H153.593V29H190.193V37.88H177.293V71H166.493V37.88Z" fill="black"/>
<path d="M155.26 6.4H160.39C162.142 6.4 163.432 6.784 164.26 7.552C165.1 8.308 165.52 9.358 165.52 10.702C165.52 12.046 165.1 13.102 164.26 13.87C163.432 14.626 162.142 15.004 160.39 15.004H158.5V19H155.26V6.4ZM160.03 12.34C160.858 12.34 161.44 12.202 161.776 11.926C162.112 11.65 162.28 11.242 162.28 10.702C162.28 10.162 162.112 9.754 161.776 9.478C161.44 9.202 160.858 9.064 160.03 9.064H158.5V12.34H160.03ZM172.001 19.234C170.237 19.234 168.917 18.892 168.041 18.208C167.177 17.524 166.727 16.588 166.691 15.4H169.931C170.027 15.856 170.237 16.192 170.561 16.408C170.885 16.612 171.365 16.714 172.001 16.714C173.381 16.714 174.071 16.33 174.071 15.562C174.071 15.31 174.005 15.106 173.873 14.95C173.741 14.782 173.549 14.638 173.297 14.518C173.045 14.386 172.733 14.272 172.361 14.176C171.989 14.08 171.557 13.978 171.065 13.87C170.441 13.726 169.877 13.558 169.373 13.366C168.881 13.162 168.461 12.904 168.113 12.592C167.777 12.28 167.513 11.908 167.321 11.476C167.141 11.032 167.051 10.504 167.051 9.892C167.051 9.304 167.165 8.782 167.393 8.326C167.621 7.858 167.951 7.468 168.383 7.156C168.815 6.832 169.337 6.586 169.949 6.418C170.561 6.25 171.245 6.166 172.001 6.166C173.657 6.166 174.887 6.484 175.691 7.12C176.507 7.756 176.957 8.656 177.041 9.82H173.801C173.729 9.436 173.555 9.154 173.279 8.974C173.003 8.782 172.577 8.686 172.001 8.686C171.365 8.686 170.921 8.788 170.669 8.992C170.417 9.196 170.291 9.46 170.291 9.784C170.291 10.228 170.519 10.552 170.975 10.756C171.443 10.96 172.115 11.146 172.991 11.314C173.639 11.446 174.227 11.608 174.755 11.8C175.295 11.98 175.751 12.226 176.123 12.538C176.507 12.838 176.801 13.21 177.005 13.654C177.209 14.086 177.311 14.62 177.311 15.256C177.311 16.504 176.843 17.482 175.907 18.19C174.971 18.886 173.669 19.234 172.001 19.234ZM184.599 19.234C183.759 19.234 182.997 19.126 182.313 18.91C181.641 18.682 181.065 18.352 180.585 17.92C180.117 17.476 179.751 16.924 179.487 16.264C179.235 15.604 179.109 14.836 179.109 13.96V6.4H182.349V13.582C182.349 14.554 182.517 15.292 182.853 15.796C183.189 16.288 183.771 16.534 184.599 16.534C185.451 16.534 186.039 16.288 186.363 15.796C186.687 15.292 186.849 14.56 186.849 13.6V6.4H190.089V13.96C190.089 14.836 189.963 15.604 189.711 16.264C189.459 16.924 189.093 17.476 188.613 17.92C188.145 18.352 187.569 18.682 186.885 18.91C186.213 19.126 185.451 19.234 184.599 19.234Z" fill="black"/>
<circle cx="144" cy="12" r="7" fill="black"/>
</svg>
